<svg width="72" height="72" viewBox="0 0 72 72" fill="none" xmlns="http://www.w3.org/2000/svg">
<path d="M17.58 61.72C14.86 61.72 12.44 61.36 10.32 60.64C8.24 59.96 6.62 58.94 5.46 57.58C4.3 56.26 3.72 54.66 3.72 52.78C3.72 51.74 3.96 50.7 4.44 49.66C4.92 48.66 5.7 47.7 6.78 46.78C7.86 45.86 9.32 45.02 11.16 44.26L14.4 46.9C12.44 47.7 11.1 48.56 10.38 49.48C9.7 50.4 9.36 51.42 9.36 52.54C9.36 53.54 9.68 54.38 10.32 55.06C10.96 55.78 11.88 56.32 13.08 56.68C14.32 57.08 15.82 57.28 17.58 57.28C19.34 57.28 20.78 57.06 21.9 56.62C23.02 56.18 23.84 55.58 24.36 54.82C24.92 54.06 25.2 53.2 25.2 52.24C25.2 51 24.72 50.04 23.76 49.36C22.84 48.68 21.06 48.26 18.42 48.1C16.14 47.94 14.22 47.72 12.66 47.44C11.1 47.12 9.76 46.78 8.64 46.42C7.56 46.02 6.64 45.58 5.88 45.1C5.16 44.58 4.54 44.06 4.02 43.54V42.16L10.02 36.1L13.5 37.66L8.34 43.72L9.3 41.2C9.7 41.44 10.1 41.66 10.5 41.86C10.94 42.06 11.52 42.26 12.24 42.46C12.96 42.66 13.92 42.86 15.12 43.06C16.32 43.26 17.84 43.44 19.68 43.6C22.36 43.8 24.52 44.24 26.16 44.92C27.8 45.6 29 46.54 29.76 47.74C30.52 48.9 30.9 50.34 30.9 52.06C30.9 53.58 30.42 55.08 29.46 56.56C28.54 58.04 27.1 59.26 25.14 60.22C23.18 61.22 20.66 61.72 17.58 61.72ZM17.58 39.82C15.06 39.82 12.9 39.34 11.1 38.38C9.34 37.42 7.98 36.14 7.02 34.54C6.1 32.94 5.64 31.14 5.64 29.14C5.64 27.18 6.1 25.4 7.02 23.8C7.98 22.2 9.34 20.92 11.1 19.96C12.9 19 15.06 18.52 17.58 18.52C20.1 18.52 22.24 19 24 19.96C25.8 20.92 27.16 22.2 28.08 23.8C29 25.4 29.46 27.18 29.46 29.14C29.46 31.14 29 32.94 28.08 34.54C27.16 36.14 25.8 37.42 24 38.38C22.24 39.34 20.1 39.82 17.58 39.82ZM17.58 35.32C19.5 35.32 21.04 34.8 22.2 33.76C23.4 32.72 24 31.2 24 29.2C24 27.12 23.4 25.58 22.2 24.58C21.04 23.54 19.5 23.02 17.58 23.02C15.62 23.02 14.04 23.54 12.84 24.58C11.68 25.58 11.1 27.12 11.1 29.2C11.1 31.2 11.68 32.72 12.84 33.76C14.04 34.8 15.62 35.32 17.58 35.32ZM22.38 23.44L20.94 19.24H33.36V22.48L22.38 23.44ZM47.3184 49.72C44.8784 49.72 42.6984 49.3 40.7784 48.46C38.8584 47.62 37.2984 46.46 36.0984 44.98C34.9384 43.46 34.2384 41.68 33.9984 39.64H40.0584C40.2984 40.56 40.6784 41.44 41.1984 42.28C41.7584 43.12 42.5384 43.82 43.5384 44.38C44.5784 44.9 45.8384 45.16 47.3184 45.16C48.6384 45.16 49.7184 44.98 50.5584 44.62C51.4384 44.22 52.0784 43.7 52.4784 43.06C52.9184 42.42 53.1384 41.72 53.1384 40.96C53.1384 40.04 52.8384 39.3 52.2384 38.74C51.6784 38.14 50.8584 37.64 49.7784 37.24C48.7384 36.8 47.4784 36.38 45.9984 35.98C44.7584 35.62 43.4984 35.24 42.2184 34.84C40.9384 34.4 39.7784 33.88 38.7384 33.28C37.6984 32.68 36.8584 31.9 36.2184 30.94C35.5784 29.94 35.2584 28.72 35.2584 27.28C35.2584 25.64 35.6984 24.16 36.5784 22.84C37.4984 21.52 38.7984 20.48 40.4784 19.72C42.1584 18.92 44.1584 18.52 46.4784 18.52C49.7584 18.52 52.4184 19.32 54.4584 20.92C56.5384 22.48 57.7584 24.74 58.1184 27.7H52.2984C52.1384 26.22 51.5384 25.08 50.4984 24.28C49.4984 23.48 48.1384 23.08 46.4184 23.08C44.7384 23.08 43.4384 23.44 42.5184 24.16C41.6384 24.88 41.1984 25.78 41.1984 26.86C41.1984 27.58 41.4384 28.18 41.9184 28.66C42.3984 29.14 43.1384 29.56 44.1384 29.92C45.1784 30.24 46.4584 30.64 47.9784 31.12C49.8984 31.68 51.6984 32.3 53.3784 32.98C55.0984 33.66 56.4784 34.56 57.5184 35.68C58.5984 36.76 59.1384 38.26 59.1384 40.18C59.1784 42.02 58.6984 43.66 57.6984 45.1C56.7384 46.54 55.3784 47.68 53.6184 48.52C51.8584 49.32 49.7584 49.72 47.3184 49.72ZM64.4845 49.3C63.4045 49.3 62.4845 48.94 61.7245 48.22C61.0045 47.46 60.6445 46.56 60.6445 45.52C60.6445 44.48 61.0045 43.6 61.7245 42.88C62.4845 42.16 63.4045 41.8 64.4845 41.8C65.6045 41.8 66.5245 42.16 67.2445 42.88C67.9645 43.6 68.3245 44.48 68.3245 45.52C68.3245 46.56 67.9645 47.46 67.2445 48.22C66.5245 48.94 65.6045 49.3 64.4845 49.3Z" fill="black"/>
</svg>
